<svg version="1.1" id="Layer_1" xmlns="http://www.w3.org/2000/svg" xmlns:xlink="http://www.w3.org/1999/xlink" x="0px" y="0px"
	 width="100%" viewBox="0 0 5000 1712" enable-background="new 0 0 5000 1712" xml:space="preserve">
<path fill="#000000" opacity="1.000000" stroke="none" 
	d="
M2803.757812,666.283386 
	C2807.739746,670.286621 2811.220947,673.785400 2815.336914,677.922180 
	C2796.368408,697.055115 2777.975342,715.607849 2759.136475,734.610291 
	C2639.152344,614.626160 2519.518799,494.992615 2399.000732,374.474457 
	C2278.700684,494.774628 2159.060059,614.415344 2040.163452,733.311951 
	C2021.534058,714.694031 2002.999146,696.170532 1983.974487,677.157715 
	C1985.127563,675.848511 1986.728271,673.815857 1988.544800,671.998962 
	C2123.326660,537.194153 2258.125488,402.406311 2392.922607,267.616943 
	C2393.393799,267.145782 2393.851318,266.660187 2394.332520,266.199585 
	C2400.163086,260.622375 2400.868408,260.555176 2406.422852,265.917938 
	C2417.680176,276.786957 2428.963379,287.631592 2440.078857,298.644684 
	C2456.887451,315.298096 2473.498047,332.151184 2490.308105,348.803192 
	C2515.626221,373.883057 2541.040771,398.865234 2566.427734,423.875580 
	C2567.574219,425.005096 2568.849854,426.003540 2571.240234,428.087189 
	C2571.240234,388.389709 2571.240234,349.983002 2571.240234,310.956787 
	C2595.259766,310.956787 2618.361328,310.956787 2642.340332,310.956787 
	C2642.340332,314.871490 2642.340332,318.457397 2642.340332,322.043274 
	C2642.340332,380.697662 2642.448730,439.352570 2642.189453,498.005798 
	C2642.160400,504.588623 2644.208496,509.077789 2648.842285,513.559143 
	C2671.583740,535.552551 2694.055664,557.825256 2716.570801,580.051697 
	C2745.491943,608.601257 2774.363770,637.200867 2803.757812,666.283386 
z"/>
<path fill="#000000" opacity="1.000000" stroke="none" 
	d="
M2325.661133,759.999817 
	C2325.661133,691.762451 2325.661133,624.525146 2325.661133,556.811157 
	C2376.039062,556.811157 2425.540527,556.811157 2475.690918,556.811157 
	C2475.690918,641.443176 2475.690918,725.921448 2475.690918,811.034546 
	C2426.093018,811.034546 2376.329346,811.034546 2325.661133,811.034546 
	C2325.661133,794.162048 2325.661133,777.580933 2325.661133,759.999817 
z"/>
<path fill="#000000" opacity="1.000000" stroke="none" 
	d="
M4505.690918,1074.000244 
	C4505.690918,1108.319214 4505.738770,1141.638428 4505.632324,1174.957031 
	C4505.618652,1179.225098 4505.132324,1183.555420 4504.297852,1187.743896 
	C4502.274414,1197.909302 4498.152344,1200.927612 4487.624023,1200.540527 
	C4477.492676,1200.167969 4473.421387,1196.451050 4472.254883,1186.216919 
	C4471.842285,1182.590576 4471.666504,1178.918213 4471.665039,1175.266724 
	C4471.633789,1092.302368 4471.637207,1009.338074 4471.656250,926.373718 
	C4471.656738,923.383484 4471.823730,920.389526 4472.013184,917.403687 
	C4472.470215,910.201965 4475.256836,903.965515 4482.576660,902.181030 
	C4489.835449,900.411377 4496.802246,901.214783 4502.082520,908.351440 
	C4520.251953,932.909912 4538.820801,957.173401 4557.199707,981.577576 
	C4590.372070,1025.624878 4623.515137,1069.694458 4656.676758,1113.750366 
	C4661.856445,1120.632202 4667.067871,1127.490112 4672.625000,1134.836060 
	C4675.447754,1131.188232 4674.235840,1127.443970 4674.240723,1124.083496 
	C4674.333008,1059.111572 4674.277344,994.139404 4674.368652,929.167419 
	C4674.375977,923.901672 4674.829102,918.564392 4675.775879,913.388428 
	C4677.321777,904.937012 4683.597656,901.065796 4693.739746,901.653076 
	C4701.541504,902.104919 4707.045898,907.602722 4707.662109,915.670715 
	C4707.814453,917.658386 4707.690430,919.667236 4707.690430,921.666382 
	C4707.690918,1007.962646 4707.690918,1094.258911 4707.690918,1180.555176 
	C4707.690918,1181.554688 4707.680176,1182.554443 4707.691895,1183.553833 
	C4707.773926,1190.592041 4706.260254,1196.953735 4699.081055,1200.016602 
	C4692.548828,1202.803223 4683.211426,1200.546875 4678.334961,1194.654419 
	C4671.773926,1186.726318 4665.684082,1178.403076 4659.512207,1170.159546 
	C4626.060547,1125.481079 4592.641602,1080.778198 4559.220703,1036.076416 
	C4542.712402,1013.995850 4526.228516,991.896423 4509.715332,969.819153 
	C4509.016602,968.884399 4508.131836,968.088013 4505.690918,965.455322 
	C4505.690918,1002.811035 4505.690918,1037.905640 4505.690918,1074.000244 
z"/>
<path fill="#000000" opacity="1.000000" stroke="none" 
	d="
M2166.354736,1153.998291 
	C2166.353760,1164.328735 2166.562256,1173.665527 2166.301758,1182.989380 
	C2165.928223,1196.358643 2159.882568,1201.535645 2146.556641,1200.375000 
	C2139.298584,1199.742920 2134.869141,1195.847656 2133.813232,1188.776245 
	C2133.423584,1186.164795 2133.650146,1183.456543 2133.650146,1180.792358 
	C2133.644531,1094.480591 2133.645264,1008.168884 2133.645508,921.857178 
	C2133.645508,920.190918 2133.677734,918.524109 2133.643555,916.858582 
	C2133.506836,910.223328 2136.293945,905.092041 2142.302246,902.414001 
	C2148.812256,899.512451 2157.839844,901.817383 2162.270020,907.247253 
	C2167.938477,914.195190 2173.427734,921.296570 2178.809570,928.470093 
	C2228.056641,994.112244 2277.257080,1059.789551 2326.502441,1125.433228 
	C2329.009033,1128.774536 2331.801758,1131.901367 2336.314453,1134.800171 
	C2336.314453,1131.317627 2336.314453,1127.835083 2336.314453,1124.352539 
	C2336.314453,1057.369385 2336.314209,990.386108 2336.314697,923.402893 
	C2336.314697,921.070129 2336.158447,918.724121 2336.350098,916.407043 
	C2337.052490,907.911621 2342.085449,902.485168 2349.858154,901.671631 
	C2359.898438,900.620850 2365.524902,903.872620 2368.186035,912.857117 
	C2369.202393,916.286926 2369.622314,920.013550 2369.625732,923.605530 
	C2369.702881,1008.584167 2369.696289,1093.562866 2369.641357,1178.541626 
	C2369.639404,1181.480103 2368.767822,1184.410645 2368.668457,1187.357422 
	C2368.211914,1200.863281 2352.573486,1205.514282 2341.754150,1196.404419 
	C2337.750732,1193.033813 2334.602783,1188.554810 2331.422363,1184.313354 
	C2292.359619,1132.217773 2253.351807,1080.081055 2214.356689,1027.935059 
	C2200.629150,1009.577881 2186.993896,991.151794 2173.258057,972.800659 
	C2171.758789,970.797546 2169.872559,969.083984 2166.354736,965.275269 
	C2166.354736,1029.442871 2166.354736,1091.220825 2166.354736,1153.998291 
z"/>
<path fill="##000000" opacity="1.000000" stroke="none" 
	d="
M4303.586914,1200.013672 
	C4291.159668,1200.686890 4279.563965,1201.992554 4268.039551,1201.527100 
	C4240.541504,1200.416870 4215.063965,1192.178955 4193.276855,1175.212158 
	C4176.521484,1162.164429 4164.403809,1144.969727 4156.027832,1125.400146 
	C4146.659180,1103.511108 4142.610352,1080.521362 4142.254395,1056.744141 
	C4141.878906,1031.699707 4144.580078,1007.252380 4153.390625,983.584045 
	C4168.489258,943.023743 4196.704590,916.563354 4238.347168,905.264526 
	C4273.790527,895.647888 4308.805664,898.014893 4341.601562,915.147766 
	C4373.150879,931.629211 4393.039551,958.313721 4403.802246,992.076538 
	C4411.798828,1017.162537 4413.160156,1043.012939 4411.443359,1068.877197 
	C4409.694336,1095.226685 4402.662598,1120.338379 4388.488281,1143.138794 
	C4370.142090,1172.650513 4343.854980,1190.676270 4310.249512,1198.487549 
	C4308.315918,1198.936890 4306.383789,1199.389771 4303.586914,1200.013672 
M4243.996582,1165.595215 
	C4258.218750,1169.177612 4272.539551,1170.970581 4287.296875,1169.742554 
	C4318.693848,1167.130005 4342.464355,1152.734863 4357.931641,1125.143433 
	C4366.649414,1109.592285 4370.852539,1092.709961 4372.839355,1075.056519 
	C4376.147461,1045.657104 4374.507324,1016.853516 4363.822266,988.999756 
	C4357.247559,971.860046 4347.067383,957.331116 4331.545410,947.058289 
	C4315.882812,936.692261 4298.307129,931.981323 4279.796387,932.067444 
	C4256.931641,932.173767 4234.934082,936.025757 4216.812988,951.938538 
	C4203.489746,963.637939 4194.000977,977.876465 4188.460938,994.572021 
	C4177.199219,1028.512085 4176.727051,1063.145630 4185.229004,1097.517822 
	C4193.024414,1129.034790 4210.560059,1153.431885 4243.996582,1165.595215 
z"/>
<path fill="#000000" opacity="1.000000" stroke="none" 
	d="
M3007.983887,1074.352295 
	C2997.054199,1074.352173 2987.117432,1074.352173 2976.248291,1074.352173 
	C2976.037354,1078.221680 2975.716309,1081.404663 2975.712402,1084.587891 
	C2975.674316,1115.234863 2975.743652,1145.881958 2975.627930,1176.528442 
	C2975.611816,1180.791260 2975.162842,1185.142700 2974.211914,1189.292236 
	C2972.377197,1197.296387 2965.072998,1202.428101 2957.410400,1201.637695 
	C2947.458740,1200.611328 2941.162354,1195.098755 2940.347168,1186.573730 
	C2940.157715,1184.592896 2940.310303,1182.578979 2940.310303,1180.580322 
	C2940.309814,1095.301880 2940.554443,1010.022156 2940.088623,924.746338 
	C2940.003174,909.087341 2948.660889,903.679688 2960.305176,903.709167 
	C2996.598877,903.801086 3032.906982,903.557190 3069.178467,904.562134 
	C3085.705566,905.020020 3101.957520,908.545532 3116.598389,917.431946 
	C3138.179199,930.530579 3149.843994,949.444092 3154.011719,974.347839 
	C3157.047119,992.485474 3154.586182,1009.381287 3147.757324,1025.798096 
	C3139.356689,1045.993530 3123.436523,1058.518677 3103.375732,1066.183350 
	C3099.696777,1067.588989 3095.935303,1068.778687 3090.700439,1070.591553 
	C3109.923828,1080.844971 3118.168945,1098.474854 3127.324463,1115.312012 
	C3137.627441,1134.258545 3147.620117,1153.373779 3157.753662,1172.412598 
	C3160.741455,1178.026245 3163.032959,1183.711060 3162.450928,1190.372925 
	C3162.049072,1194.971558 3159.659668,1197.888062 3155.974854,1199.687500 
	C3148.942383,1203.121704 3136.504639,1200.083618 3131.501709,1193.855225 
	C3129.433105,1191.279663 3127.619141,1188.445435 3126.041016,1185.537964 
	C3112.104980,1159.865479 3098.306152,1134.118530 3084.319336,1108.473999 
	C3081.471191,1103.251831 3078.117432,1098.291016 3074.798828,1093.342529 
	C3067.178955,1081.979370 3055.760010,1077.050293 3042.759766,1075.833862 
	C3031.550537,1074.784912 3020.241455,1074.804810 3007.983887,1074.352295 
M2979.345703,1045.793091 
	C3005.967773,1045.747314 3032.613770,1046.343018 3059.199707,1045.340820 
	C3069.870117,1044.938477 3080.700928,1041.899780 3090.929443,1038.479126 
	C3102.754883,1034.524414 3110.912354,1025.652344 3115.539307,1014.002563 
	C3119.918213,1002.978516 3121.045410,991.251465 3119.352295,979.727051 
	C3117.095947,964.373596 3109.911133,951.871704 3095.656006,943.752930 
	C3081.828857,935.878174 3066.809326,934.195740 3051.609131,933.826904 
	C3028.659912,933.270020 3005.687500,933.666504 2982.724854,933.706421 
	C2980.520996,933.710205 2978.317871,934.056763 2975.681885,934.281006 
	C2975.681885,938.833069 2975.680908,942.781189 2975.681885,946.729248 
	C2975.689697,978.677185 2975.680908,1010.625122 2975.777344,1042.572754 
	C2975.780762,1043.688110 2976.837646,1044.800171 2979.345703,1045.793091 
z"/>
<path fill="#000000" opacity="1.000000" stroke="none" 
	d="
M2053.854004,1135.894531 
	C2035.058838,1169.765869 2007.476440,1191.273804 1970.139404,1198.640869 
	C1928.752319,1206.807007 1889.533447,1201.158325 1854.890381,1175.332886 
	C1838.005127,1162.745361 1826.339111,1145.733643 1817.818848,1126.671997 
	C1804.910278,1097.793091 1802.370239,1067.169678 1803.976685,1036.067139 
	C1805.254395,1011.325195 1810.868774,987.637756 1822.734619,965.615356 
	C1839.403564,934.678528 1865.006348,915.329163 1898.563110,905.667786 
	C1931.039551,896.317505 1963.125366,898.239868 1993.987915,910.719360 
	C2016.516846,919.829102 2034.786865,935.432800 2048.094482,956.278076 
	C2064.420166,981.850769 2071.657715,1009.868164 2072.536377,1040.080078 
	C2073.174072,1062.011841 2072.683105,1083.706909 2066.175781,1104.751831 
	C2062.959961,1115.151367 2058.195801,1125.072144 2053.854004,1135.894531 
M1994.610229,948.235840 
	C1974.809082,934.769104 1952.665527,930.644714 1929.255737,932.440796 
	C1916.005981,933.457336 1902.857788,936.111206 1891.225830,942.723999 
	C1872.375488,953.440125 1859.819458,969.688599 1851.449951,989.686218 
	C1843.061401,1009.729065 1841.286621,1030.973022 1840.857422,1051.994019 
	C1840.537842,1067.635864 1842.364502,1083.690186 1846.820435,1099.102417 
	C1863.545898,1156.951660 1905.134888,1176.048584 1955.733398,1169.020996 
	C1997.224243,1163.258179 2019.177490,1137.590454 2029.907593,1098.014893 
	C2037.467896,1070.130493 2037.632202,1041.703247 2032.233398,1013.363831 
	C2027.380127,987.889099 2016.806641,965.468994 1994.610229,948.235840 
z"/>
<path fill="#000000" opacity="1.000000" stroke="none" 
	d="
M3366.943848,1199.229614 
	C3343.318848,1203.083984 3320.623779,1203.028442 3297.913818,1198.298584 
	C3255.316162,1189.426514 3228.332520,1161.817383 3220.044922,1120.364380 
	C3217.011719,1105.193115 3215.994385,1089.424194 3215.831299,1073.909424 
	C3215.316162,1024.932007 3215.585938,975.945557 3215.726562,926.963135 
	C3215.740479,922.064087 3216.493408,917.053772 3217.702637,912.298340 
	C3219.472900,905.337402 3223.511963,902.136353 3230.266602,901.694458 
	C3237.395508,901.228027 3244.879395,901.197144 3248.248047,909.006653 
	C3250.278564,913.714417 3251.525879,919.155518 3251.547607,924.273743 
	C3251.777832,978.253845 3251.634033,1032.235474 3251.727051,1086.216309 
	C3251.751709,1100.590576 3254.202393,1114.550659 3259.739014,1127.943237 
	C3267.020020,1145.554932 3279.606201,1157.760010 3297.384277,1164.095581 
	C3319.226562,1171.879272 3341.691650,1172.169678 3363.946533,1166.267090 
	C3393.300049,1158.481812 3408.640381,1137.726318 3413.463135,1108.790649 
	C3415.416748,1097.069092 3416.117920,1085.026489 3416.187988,1073.122925 
	C3416.478760,1023.808533 3416.307129,974.491516 3416.316406,925.175415 
	C3416.316895,922.179077 3416.058594,919.126465 3416.526367,916.196777 
	C3418.122559,906.202332 3423.973389,901.601929 3434.562500,901.647766 
	C3444.127197,901.689148 3449.941162,906.590088 3451.487793,916.223511 
	C3451.905762,918.827515 3451.683594,921.541138 3451.683838,924.204468 
	C3451.691895,979.851624 3452.062744,1035.502441 3451.517090,1091.144287 
	C3451.279785,1115.336304 3445.483887,1138.630859 3431.923584,1159.031128 
	C3416.744629,1181.866699 3394.432373,1194.132324 3366.943848,1199.229614 
z"/>
<path fill="#000000" opacity="1.000000" stroke="none" 
	d="
M440.304565,1113.738525 
	C460.608185,1132.469482 480.416199,1150.691772 500.197571,1168.942871 
	C502.886993,1171.424194 505.608765,1173.903687 508.026031,1176.639771 
	C512.698486,1181.928833 513.983093,1189.328857 510.927795,1194.114380 
	C507.127777,1200.066406 501.338318,1201.358154 494.624542,1200.769897 
	C488.984009,1200.275635 484.575989,1197.727905 480.554230,1194.063843 
	C465.820129,1180.640259 451.053741,1167.251953 436.321930,1153.825806 
	C414.470337,1133.910767 392.614624,1114.000122 370.806519,1094.037476 
	C359.074310,1083.298218 347.437775,1072.454346 334.411743,1060.413086 
	C334.100250,1064.575073 333.722137,1067.297119 333.719147,1070.019775 
	C333.679565,1105.999512 333.692780,1141.979248 333.692535,1177.958984 
	C333.692505,1180.291016 333.803925,1182.629639 333.668854,1184.953979 
	C333.098328,1194.770020 327.843933,1200.050049 318.015015,1200.790894 
	C307.700684,1201.568359 301.506500,1197.055298 299.722076,1187.040039 
	C298.914215,1182.505737 298.369568,1177.855591 298.365051,1173.257446 
	C298.285248,1091.969849 298.284058,1010.682251 298.364410,929.394714 
	C298.369263,924.462280 298.904755,919.482605 299.704956,914.608948 
	C301.218079,905.393066 307.022552,901.377747 317.745514,901.651184 
	C327.431824,901.898132 332.768494,906.635071 333.639587,915.921265 
	C333.856537,918.233521 333.691681,920.582153 333.691772,922.914062 
	C333.693146,957.228088 333.692719,991.542053 333.692719,1025.856079 
	C333.692719,1029.045288 333.692719,1032.234497 333.692719,1037.367432 
	C343.469696,1028.475708 351.796356,1021.083496 359.924469,1013.479065 
	C392.210144,983.273743 424.429382,952.997437 456.685425,922.760437 
	C461.290314,918.443787 465.903931,914.133240 470.617035,909.936157 
	C477.382080,903.911804 485.201691,900.711365 494.394348,901.807678 
	C503.234222,902.861938 507.621887,910.155212 503.866699,918.280823 
	C502.244446,921.791138 499.562592,925.034363 496.721222,927.721252 
	C481.751007,941.877869 466.599579,955.843445 451.466003,969.826477 
	C435.604279,984.482361 419.696930,999.088928 403.799011,1013.705566 
	C395.972748,1020.901062 388.132263,1028.081055 380.279877,1035.248047 
	C376.365417,1038.820679 372.409760,1042.348145 367.661255,1046.627441 
	C392.516785,1069.578369 416.158691,1091.408813 440.304565,1113.738525 
z"/>
<path fill="#000000" opacity="1.000000" stroke="none" 
	d="
M743.426697,1134.649902 
	C741.699951,1130.950684 740.266724,1127.974976 738.681030,1124.682739 
	C688.206299,1124.682739 637.620667,1124.682739 586.622131,1124.682739 
	C579.612183,1141.153809 572.648132,1157.627686 565.581238,1174.057373 
	C563.351074,1179.242310 561.472595,1184.748291 558.281433,1189.299927 
	C555.366699,1193.457275 551.447266,1197.771973 546.968933,1199.753906 
	C541.313904,1202.256714 534.820679,1202.011108 529.528809,1197.062012 
	C523.917847,1191.814453 524.692261,1185.596069 527.044922,1179.598633 
	C531.525757,1168.176392 536.507690,1156.946533 541.440247,1145.706543 
	C573.697693,1072.200317 605.985352,998.707275 638.314697,925.232666 
	C640.186035,920.979675 642.771240,917.035767 644.571472,912.757507 
	C650.091492,899.638672 672.082092,895.510620 681.343018,913.206482 
	C685.648071,921.432556 689.314880,930.002380 693.071106,938.504639 
	C727.667542,1016.813049 762.230164,1095.136353 796.750488,1173.478394 
	C798.213623,1176.798828 799.354004,1180.292725 800.318970,1183.795410 
	C802.654602,1192.272949 798.638184,1198.571167 789.949707,1200.369385 
	C780.078735,1202.412598 772.720459,1199.433594 767.880859,1189.908203 
	C762.185852,1178.699219 757.381287,1167.034424 752.287170,1155.524536 
	C749.333496,1148.850952 746.569519,1142.093262 743.426697,1134.649902 
M710.132019,1056.833740 
	C694.686279,1020.376770 679.240540,983.919800 662.989990,945.563171 
	C641.522156,996.147583 620.958008,1044.602539 600.426392,1092.980957 
	C642.432007,1092.980957 683.469360,1092.980957 725.441772,1092.980957 
	C720.297363,1080.744873 715.558105,1069.472290 710.132019,1056.833740 
z"/>
<path fill="#000000" opacity="1.000000" stroke="none" 
	d="
M873.669434,1161.878418 
	C869.567627,1171.416870 866.028625,1180.402222 861.672180,1188.972168 
	C856.503906,1199.139160 849.078186,1202.510254 838.940979,1200.322754 
	C832.422913,1198.916138 828.131531,1194.449341 828.489075,1187.919312 
	C828.734680,1183.434570 829.989380,1178.777222 831.803467,1174.639893 
	C864.438843,1100.212036 897.242859,1025.858154 929.969727,951.470276 
	C934.913513,940.233032 939.431885,928.804443 944.553650,917.651062 
	C948.767761,908.474487 954.700928,901.340088 966.272522,901.581543 
	C975.456970,901.773254 981.216125,906.652954 984.842407,914.328064 
	C991.364746,928.132507 997.618530,942.067322 1003.786865,956.034912 
	C1026.164551,1006.707825 1048.464355,1057.415039 1070.784912,1108.113037 
	C1081.075928,1131.487549 1091.450928,1154.825928 1101.533813,1178.289917 
	C1103.424194,1182.688965 1105.768066,1187.224243 1103.041382,1192.549072 
	C1097.980957,1202.431152 1082.549683,1204.258789 1074.515137,1195.302612 
	C1071.721436,1192.188354 1069.693970,1188.215698 1067.965820,1184.345093 
	C1059.170532,1164.645264 1050.588257,1144.850342 1041.796143,1124.780273 
	C991.159729,1124.780273 940.673645,1124.780273 889.657837,1124.780273 
	C884.398193,1136.894043 879.134277,1149.017822 873.669434,1161.878418 
M936.891418,1013.841248 
	C925.770081,1040.212280 914.648682,1066.583252 903.279968,1093.540649 
	C945.695190,1093.540649 986.555847,1093.540649 1028.680786,1093.540649 
	C1007.861328,1044.450684 987.311218,995.995667 965.878357,945.459351 
	C955.807739,969.324890 946.701721,990.904663 936.891418,1013.841248 
z"/>
<path fill="#000000" opacity="1.000000" stroke="none" 
	d="
M2626.760742,1073.259033 
	C2637.186035,1082.643066 2641.768311,1094.251831 2643.681396,1107.010498 
	C2649.039062,1142.736206 2630.692871,1173.262939 2601.636719,1187.918701 
	C2579.201172,1199.234985 2555.359375,1203.059814 2530.287109,1202.004150 
	C2507.893555,1201.061401 2485.985840,1198.115112 2465.207031,1189.717529 
	C2454.807129,1185.514771 2444.790527,1180.046997 2435.260010,1174.095459 
	C2425.125000,1167.766602 2422.694824,1156.468262 2428.500732,1148.403076 
	C2432.436523,1142.935303 2436.415527,1141.462891 2443.093994,1143.632446 
	C2446.513428,1144.743164 2449.921631,1146.241089 2452.938477,1148.181030 
	C2470.508789,1159.479370 2489.668457,1167.186523 2510.288818,1169.208008 
	C2531.375977,1171.275024 2552.834717,1172.045654 2573.521240,1165.510620 
	C2590.000000,1160.304932 2601.930908,1149.946167 2606.725342,1132.737793 
	C2612.207031,1113.062134 2604.959717,1093.757568 2585.822754,1085.611694 
	C2570.445801,1079.066284 2554.360352,1075.528320 2538.135986,1072.263306 
	C2517.355225,1068.081421 2496.431641,1064.466431 2476.829590,1055.848633 
	C2455.369141,1046.413818 2439.525879,1031.744507 2433.523926,1008.402161 
	C2426.296631,980.295044 2432.570312,955.182617 2451.920410,933.606873 
	C2468.676514,914.923828 2490.612305,906.160583 2514.797119,902.140808 
	C2546.911865,896.803162 2577.658691,901.540039 2606.659912,916.004822 
	C2615.442627,920.385437 2623.843262,926.235535 2631.052246,932.892456 
	C2640.177246,941.318787 2635.967529,956.235596 2624.421143,958.939697 
	C2618.480469,960.330994 2613.468750,957.347961 2608.862305,954.061401 
	C2598.218750,946.467712 2586.722900,940.385559 2574.152588,937.071411 
	C2547.260986,929.981567 2520.427490,928.726257 2494.641602,941.608643 
	C2476.201904,950.821045 2467.438232,966.845154 2466.587891,986.648560 
	C2465.729492,1006.647644 2476.583984,1021.311096 2497.312012,1028.245239 
	C2511.993164,1033.156494 2527.320801,1036.240723 2542.481689,1039.588013 
	C2564.461426,1044.440796 2586.888916,1047.865479 2606.901123,1058.947144 
	C2613.791016,1062.762329 2619.831787,1068.111450 2626.760742,1073.259033 
z"/>
<path fill="#000000" opacity="1.000000" stroke="none" 
	d="
M1751.798340,1179.768555 
	C1709.962158,1204.105103 1666.323730,1208.579468 1621.031128,1194.714111 
	C1585.118896,1183.720459 1561.028198,1159.214355 1546.184937,1125.182861 
	C1537.860229,1106.096313 1535.011475,1085.987305 1533.304932,1065.299438 
	C1531.364746,1041.778320 1533.578979,1019.017456 1539.683716,996.474976 
	C1552.694824,948.430298 1583.217529,917.662109 1631.446167,905.125732 
	C1668.438110,895.510071 1704.444336,899.140137 1738.889526,915.719299 
	C1746.609619,919.435120 1753.741333,924.517639 1760.747192,929.525818 
	C1766.144531,933.384033 1768.768066,938.973450 1768.409302,945.935730 
	C1767.819702,957.374695 1757.656372,963.815613 1747.390259,958.806091 
	C1743.526367,956.920593 1739.916382,954.469910 1736.329346,952.069580 
	C1717.608398,939.542480 1697.278442,933.211670 1674.489868,933.470520 
	C1656.293213,933.677124 1638.820557,935.565918 1622.257690,943.646729 
	C1601.685425,953.683777 1588.710449,970.329224 1580.565063,991.083069 
	C1574.081909,1007.601440 1571.937866,1024.866821 1571.435059,1042.640503 
	C1570.908203,1061.261963 1571.493774,1079.656006 1576.146729,1097.664185 
	C1582.036987,1120.460449 1593.073364,1140.105347 1613.145508,1153.694336 
	C1623.779175,1160.893188 1635.594727,1165.109863 1648.067993,1167.444946 
	C1676.433350,1172.755249 1703.531494,1168.931763 1729.018188,1155.189453 
	C1734.521973,1152.221802 1739.571167,1148.423706 1744.958984,1145.225464 
	C1754.123779,1139.785156 1760.620361,1140.589478 1766.075928,1147.594727 
	C1771.505005,1154.565918 1770.546265,1164.582886 1763.486328,1170.922363 
	C1760.042236,1174.015137 1756.075073,1176.525391 1751.798340,1179.768555 
z"/>
<path fill="#000000" opacity="1.000000" stroke="none" 
	d="
M3638.398438,933.686035 
	C3591.985596,936.992249 3563.505615,963.435181 3552.505127,1007.509827 
	C3547.228027,1028.652344 3546.875000,1050.331909 3548.650879,1071.795288 
	C3550.149902,1089.912720 3554.595703,1107.572388 3563.621094,1123.899902 
	C3574.636963,1143.826904 3590.570312,1157.511475 3612.236572,1164.063110 
	C3645.557861,1174.139282 3677.722168,1171.035889 3708.281738,1154.018555 
	C3712.907959,1151.442505 3717.354980,1148.474731 3721.611816,1145.319824 
	C3730.412598,1138.796753 3738.064209,1141.151245 3743.449463,1148.060059 
	C3748.632324,1154.709473 3747.175293,1165.225708 3739.954834,1171.344971 
	C3730.536377,1179.327026 3720.312500,1186.163940 3708.675049,1190.530396 
	C3671.463379,1204.492798 3633.639893,1207.100220 3595.793213,1194.075439 
	C3563.148926,1182.841187 3539.596191,1160.832642 3525.325684,1129.229370 
	C3515.665039,1107.834473 3510.771729,1085.462402 3510.141602,1061.887085 
	C3509.526123,1038.852051 3510.922363,1016.301453 3517.475830,994.038574 
	C3531.222168,947.339478 3561.384033,917.438721 3608.322266,905.186157 
	C3647.037598,895.080261 3684.596191,899.407837 3720.245117,917.787476 
	C3726.674805,921.102295 3732.605957,925.537659 3738.336426,930.007690 
	C3743.176025,933.782776 3746.094482,938.741943 3745.781006,945.482300 
	C3745.230225,957.325989 3734.777100,964.029785 3724.186035,958.814148 
	C3721.522217,957.502441 3719.045166,955.774170 3716.591064,954.080200 
	C3696.948486,940.521606 3675.612549,932.453918 3651.341064,933.658020 
	C3647.352539,933.855896 3643.345703,933.685974 3638.398438,933.686035 
z"/>
<path fill="#000000" opacity="1.000000" stroke="none" 
	d="
M3820.000000,903.653198 
	C3876.642578,903.653198 3932.285400,903.639404 3987.927979,903.682556 
	C3991.911133,903.685669 3995.964111,903.715454 3999.862061,904.415283 
	C4007.669189,905.816895 4012.636719,911.261475 4013.283691,918.401306 
	C4013.908691,925.298889 4009.649658,931.528076 4001.959961,933.810669 
	C3997.905518,935.014160 3993.521240,935.577515 3989.280518,935.604797 
	C3964.292236,935.765686 3939.302734,935.683960 3914.313477,935.683960 
	C3911.063232,935.683960 3907.812988,935.683960 3903.684326,935.683960 
	C3903.684326,940.007141 3903.684570,943.585754 3903.684570,947.164429 
	C3903.684570,1024.797607 3903.729492,1102.430908 3903.568848,1180.063721 
	C3903.559814,1184.525757 3902.454590,1189.208862 3900.832764,1193.390747 
	C3898.527832,1199.331787 3892.907227,1201.796265 3887.115967,1201.449097 
	C3880.204834,1201.034790 3872.627441,1199.818359 3870.085693,1191.777710 
	C3868.518555,1186.821167 3867.754639,1181.404785 3867.744873,1176.192627 
	C3867.601807,1099.559448 3867.646240,1022.925659 3867.646240,946.292053 
	C3867.646240,943.041321 3867.646484,939.790527 3867.646484,935.683960 
	C3863.640869,935.683960 3860.396973,935.683960 3857.153076,935.683960 
	C3830.831055,935.683899 3804.509033,935.695984 3778.187012,935.676270 
	C3770.422363,935.670410 3764.276611,933.323975 3759.955811,925.979126 
	C3756.444092,920.009583 3760.298584,908.496338 3766.494873,906.367493 
	C3770.804199,904.886719 3775.479492,903.890869 3780.020020,903.772461 
	C3793.005615,903.433777 3806.005615,903.653198 3820.000000,903.653198 
z"/>
<path fill="#000000" opacity="1.000000" stroke="none" 
	d="
M2688.037598,903.653198 
	C2753.349854,903.653198 2817.669189,903.637512 2881.988770,903.688293 
	C2886.302979,903.691711 2890.712402,903.727417 2894.908936,904.578918 
	C2901.547363,905.925903 2905.862793,911.373291 2906.344971,917.903259 
	C2906.938232,925.939209 2904.232666,930.953979 2896.929199,933.479309 
	C2892.945068,934.856934 2888.534912,935.559082 2884.309570,935.590515 
	C2858.983154,935.778870 2833.654541,935.683960 2808.326660,935.683960 
	C2805.074707,935.683960 2801.822754,935.683960 2797.684326,935.683960 
	C2797.684326,939.998779 2797.684326,943.577332 2797.684326,947.155884 
	C2797.684326,1024.139282 2797.704346,1101.122681 2797.625732,1178.106079 
	C2797.621826,1182.014893 2797.368164,1186.116089 2796.186768,1189.792358 
	C2793.443115,1198.331665 2787.564697,1202.250244 2779.923828,1201.499146 
	C2769.843994,1200.508301 2763.718262,1195.708984 2762.174316,1187.035522 
	C2761.539307,1183.466919 2761.666748,1179.739624 2761.665527,1176.084595 
	C2761.640381,1100.100952 2761.646240,1024.117310 2761.646240,948.133667 
	C2761.646240,944.499268 2761.646484,940.864868 2761.646484,936.359070 
	C2758.465820,936.116272 2755.634033,935.717590 2752.801758,935.712402 
	C2726.474121,935.664307 2700.144287,935.843872 2673.820312,935.537659 
	C2669.032227,935.481995 2663.938477,934.241028 2659.574707,932.253906 
	C2654.344971,929.872253 2651.904541,924.644226 2652.502441,918.987061 
	C2653.146240,912.896179 2655.193359,906.703003 2662.353271,905.638184 
	C2670.502197,904.426270 2678.807617,904.268860 2688.037598,903.653198 
z"/>
<path fill="#000000" opacity="1.000000" stroke="none" 
	d="
M4046.297119,1137.999756 
	C4046.297119,1066.678833 4046.297119,996.357971 4046.297607,926.037109 
	C4046.297607,923.704163 4046.185059,921.364563 4046.320557,919.039429 
	C4047.115234,905.410278 4057.904785,897.716980 4070.578369,902.468750 
	C4074.196289,903.825073 4077.874268,907.425293 4079.543701,910.938110 
	C4081.428467,914.903564 4081.616455,919.930054 4081.622314,924.496277 
	C4081.731445,1008.481201 4081.718994,1092.466431 4081.651123,1176.451538 
	C4081.647949,1180.386719 4081.299561,1184.415649 4080.408936,1188.237061 
	C4078.354004,1197.053711 4072.954102,1201.230835 4064.267334,1201.354370 
	C4055.430664,1201.479980 4049.198730,1196.716309 4047.128174,1187.869385 
	C4046.457520,1185.002686 4046.349854,1181.957886 4046.332275,1178.992432 
	C4046.252197,1165.661987 4046.297363,1152.330811 4046.297119,1137.999756 
z"/>
<path fill="#000000" opacity="1.000000" stroke="none" 
	d="
M1265.316406,1072.341675 
	C1295.425903,1072.294678 1324.663208,1072.242798 1353.899780,1072.353516 
	C1357.472046,1072.367065 1361.236328,1072.694824 1364.568115,1073.859497 
	C1370.340088,1075.877075 1373.700073,1080.254761 1373.929810,1086.586426 
	C1374.154541,1092.775269 1370.685913,1098.067993 1364.423096,1100.212402 
	C1361.379639,1101.254517 1357.977295,1101.636475 1354.734985,1101.648804 
	C1326.494995,1101.755249 1298.254517,1101.719604 1270.014160,1101.693115 
	C1267.700073,1101.690918 1265.262695,1101.865845 1263.096313,1101.230103 
	C1257.553589,1099.603882 1252.515503,1097.288940 1251.634399,1090.445068 
	C1250.618774,1082.555176 1252.899170,1077.582397 1259.759766,1073.984497 
	C1261.203491,1073.227295 1262.876587,1072.907471 1265.316406,1072.341675 
z"/>
<path fill="none" opacity="1.000000" stroke="none" 
	d="
M4243.254883,1165.302002 
	C4210.560059,1153.431885 4193.024414,1129.034790 4185.229004,1097.517822 
	C4176.727051,1063.145630 4177.199219,1028.512085 4188.460938,994.572021 
	C4194.000977,977.876465 4203.489746,963.637939 4216.812988,951.938538 
	C4234.934082,936.025757 4256.931641,932.173767 4279.796387,932.067444 
	C4298.307129,931.981323 4315.882812,936.692261 4331.545410,947.058289 
	C4347.067383,957.331116 4357.247559,971.860046 4363.822266,988.999756 
	C4374.507324,1016.853516 4376.147461,1045.657104 4372.839355,1075.056519 
	C4370.852539,1092.709961 4366.649414,1109.592285 4357.931641,1125.143433 
	C4342.464355,1152.734863 4318.693848,1167.130005 4287.296875,1169.742554 
	C4272.539551,1170.970581 4258.218750,1169.177612 4243.254883,1165.302002 
z"/>
<path fill="none" opacity="1.000000" stroke="none" 
	d="
M2978.374512,1045.853516 
	C2976.837646,1044.800171 2975.780762,1043.688110 2975.777344,1042.572754 
	C2975.680908,1010.625122 2975.689697,978.677185 2975.681885,946.729248 
	C2975.680908,942.781189 2975.681885,938.833069 2975.681885,934.281006 
	C2978.317871,934.056763 2980.520996,933.710205 2982.724854,933.706421 
	C3005.687500,933.666504 3028.659912,933.270020 3051.609131,933.826904 
	C3066.809326,934.195740 3081.828857,935.878174 3095.656006,943.752930 
	C3109.911133,951.871704 3117.095947,964.373596 3119.352295,979.727051 
	C3121.045410,991.251465 3119.918213,1002.978516 3115.539307,1014.002563 
	C3110.912354,1025.652344 3102.754883,1034.524414 3090.929443,1038.479126 
	C3080.700928,1041.899780 3069.870117,1044.938477 3059.199707,1045.340820 
	C3032.613770,1046.343018 3005.967773,1045.747314 2978.374512,1045.853516 
z"/>
<path fill="none" opacity="1.000000" stroke="none" 
	d="
M1995.203857,948.646729 
	C2016.806641,965.468994 2027.380127,987.889099 2032.233398,1013.363831 
	C2037.632202,1041.703247 2037.467896,1070.130493 2029.907593,1098.014893 
	C2019.177490,1137.590454 1997.224243,1163.258179 1955.733398,1169.020996 
	C1905.134888,1176.048584 1863.545898,1156.951660 1846.820435,1099.102417 
	C1842.364502,1083.690186 1840.537842,1067.635864 1840.857422,1051.994019 
	C1841.286621,1030.973022 1843.061401,1009.729065 1851.449951,989.686218 
	C1859.819458,969.688599 1872.375488,953.440125 1891.225830,942.723999 
	C1902.857788,936.111206 1916.005981,933.457336 1929.255737,932.440796 
	C1952.665527,930.644714 1974.809082,934.769104 1995.203857,948.646729 
z"/>
<path fill="none" opacity="1.000000" stroke="none" 
	d="
M710.475464,1057.516846 
	C715.558105,1069.472290 720.297363,1080.744873 725.441772,1092.980957 
	C683.469360,1092.980957 642.432007,1092.980957 600.426392,1092.980957 
	C620.958008,1044.602539 641.522156,996.147583 662.989990,945.563171 
	C679.240540,983.919800 694.686279,1020.376770 710.475464,1057.516846 
z"/>
<path fill="none" opacity="1.000000" stroke="none" 
	d="
M937.243530,1013.162842 
	C946.701721,990.904663 955.807739,969.324890 965.878357,945.459351 
	C987.311218,995.995667 1007.861328,1044.450684 1028.680786,1093.540649 
	C986.555847,1093.540649 945.695190,1093.540649 903.279968,1093.540649 
	C914.648682,1066.583252 925.770081,1040.212280 937.243530,1013.162842 
z"/>
</svg>